<svg width="24" height="24" viewBox="0 0 24 24" fill="none" xmlns="http://www.w3.org/2000/svg">
<path fill-rule="evenodd" clip-rule="evenodd" d="M2.83333 11C2.83333 5.93735 6.93739 1.83329 12 1.83329C17.0626 1.83329 21.1667 5.93735 21.1667 11C21.1667 16.0626 17.0626 20.1666 12 20.1666C6.93739 20.1666 2.83333 16.0626 2.83333 11ZM12 0.166626C6.01692 0.166626 1.16667 5.01688 1.16667 11C1.16667 16.983 6.01692 21.8333 12 21.8333C17.9831 21.8333 22.8333 16.983 22.8333 11C22.8333 5.01688 17.9831 0.166626 12 0.166626ZM11.9301 14.6943L17.7196 8.69433L16.2804 7.30559L11.1148 12.659L7.61369 9.93769L6.38631 11.5168L10.5968 14.7895L11.3062 15.3409L11.9301 14.6943Z" fill="#2B9B5B"/>
</svg>
