<svg width="42" height="40" viewBox="0 0 42 40" fill="none" xmlns="http://www.w3.org/2000/svg">
<path d="M1.2395 10.1136C1.30193 4.59113 5.82969 0.114258 11.3525 0.114258H31.2933C36.8161 0.114258 41.2427 4.59112 41.1802 10.1136L40.9636 29.2788C40.9012 34.8013 36.3734 39.2782 30.8506 39.2782H10.9098C5.38696 39.2782 0.96043 34.8013 1.02286 29.2788L1.2395 10.1136Z" fill="#FFAA94"/>
<path d="M25.4857 24.3238C25.4759 24.7566 25.2912 25.1716 24.9722 25.4776C24.6531 25.7836 24.226 25.9555 23.7846 25.9555L13.7994 25.9555L10.3972 29.219L10.6924 16.1652C10.7021 15.7324 10.8869 15.3174 11.2059 15.0114C11.5249 14.7054 11.9521 14.5334 12.3934 14.5334L24.0428 14.5334C24.4842 14.5334 24.9036 14.7054 25.2088 15.0114C25.514 15.3174 25.6799 15.7324 25.6701 16.1652L25.4857 24.3238Z" stroke="white" stroke-width="1.66667" stroke-linecap="round" stroke-linejoin="round"/>
</svg>
