<svg width="203" height="38" viewBox="0 0 203 38" fill="none" xmlns="http://www.w3.org/2000/svg">
<path d="M18.5845 0.415527L22.757 13.2571H36.2594L25.3357 21.1936L29.5082 34.0352L18.5845 26.0987L7.66081 34.0352L11.8333 21.1936L0.90959 13.2571H14.412L18.5845 0.415527Z" fill="#FFC728"/>
<path d="M60.0423 0.415527L64.2148 13.2571H77.7172L66.7935 21.1936L70.966 34.0352L60.0423 26.0987L49.1186 34.0352L53.2911 21.1936L42.3674 13.2571H55.8698L60.0423 0.415527Z" fill="#FFC728"/>
<path d="M101.5 0.415527L105.672 13.2571H119.175L108.251 21.1936L112.424 34.0352L101.5 26.0987L90.5763 34.0352L94.7488 21.1936L83.8251 13.2571H97.3275L101.5 0.415527Z" fill="#FFC728"/>
<path d="M142.958 0.415527L147.13 13.2571H160.633L149.709 21.1936L153.881 34.0352L142.958 26.0987L132.034 34.0352L136.207 21.1936L125.283 13.2571H138.785L142.958 0.415527Z" fill="#FFC728"/>
<path d="M184.416 0.415527L188.588 13.2571H202.09L191.167 21.1936L195.339 34.0352L184.416 26.0987L173.492 34.0352L177.664 21.1936L166.741 13.2571H180.243L184.416 0.415527Z" fill="#FFC728"/>
</svg>
