<svg width="31" height="30" viewBox="0 0 31 30" fill="none" xmlns="http://www.w3.org/2000/svg">
<path d="M27.012 19.8626C26.2168 21.7432 24.973 23.4004 23.3894 24.6892C21.8057 25.9781 19.9305 26.8594 17.9276 27.2561C15.9247 27.6528 13.8551 27.5528 11.8997 26.9648C9.94436 26.3769 8.16281 25.3189 6.7108 23.8834C5.25879 22.4479 4.18055 20.6785 3.57032 18.73C2.9601 16.7815 2.83648 14.7132 3.21027 12.7059C3.58407 10.6986 4.4439 8.81338 5.71458 7.21513C6.98527 5.61689 8.62813 4.35424 10.4995 3.5376" stroke="#54BD95" stroke-width="2" stroke-linecap="round" stroke-linejoin="round"/>
<path d="M28 15C28 13.3585 27.6767 11.733 27.0485 10.2165C26.4203 8.69989 25.4996 7.3219 24.3388 6.16117C23.1781 5.00043 21.8001 4.07969 20.2835 3.45151C18.767 2.82332 17.1415 2.5 15.5 2.5V15H28Z" stroke="#54BD95" stroke-width="2" stroke-linecap="round" stroke-linejoin="round"/>
</svg>
